# xmcd
#
# Track frame offsets:
#	150
#	17172
#	34090
#	49015
#	63765
#	76217
#	89932
#	101650
#	120445
#	135242
#	150170
#	167292
#	177680
#	196032
#	212762
#	231520
#	242930
#	254362
#
# Disc length: 3551 seconds
#
# Revision: 0
# Processed by: cddbd v1.4PL0 Copyright (c) Steve Scherf et al.
# Submitted via: EasyCDDAExtractor 4.5.2.1
#
DISCID=e80ddd12
DTITLE=Jim Brickman - Ballads
DYEAR=2001
DGENRE=Blues
TTITLE0=Your Love
TTITLE1=The Gift
TTITLE2=Valentine
TTITLE3=Starbright
TTITLE4=What Child Is This?
TTITLE5=Partners In Crime
TTITLE6=Sweet Dreams
TTITLE7=That's What I'm Here For
TTITLE8=Angels
TTITLE9=Hope Is Born Again
TTITLE10=You Never Know
TTITLE11=Picture This
TTITLE12=Secret Love
TTITLE13=American Dream
TTITLE14=After All These Years
TTITLE15=Hero's Dream
TTITLE16=Angel Eyes
TTITLE17=Edge Water
EXTD=
EXTT0=
EXTT1=
EXTT2=
EXTT3=
EXTT4=
EXTT5=
EXTT6=
EXTT7=
EXTT8=
EXTT9=
EXTT10=
EXTT11=
EXTT12=
EXTT13=
EXTT14=
EXTT15=
EXTT16=
EXTT17=
PLAYORDER=
